<svg xmlns="http://www.w3.org/2000/svg" fill="none" viewBox="0 0 125 22"><path fill="#DDD" d="M9.648 2.83c-.619.746-1.609 1.332-2.599 1.248-.123-1.005.363-2.076.932-2.73C8.601.586 9.681.042 10.563 0c.1 1.038-.305 2.069-.915 2.83zm.899 1.441c-1.435-.084-2.665.83-3.341.83-.693 0-1.732-.788-2.87-.763-1.477.025-2.847.871-3.597 2.22-1.551 2.704-.405 6.699 1.097 8.902.734 1.088 1.608 2.286 2.763 2.244 1.097-.042 1.526-.72 2.846-.72 1.328 0 1.716.72 2.871.703 1.196-.025 1.947-1.089 2.681-2.177.833-1.24 1.18-2.437 1.196-2.504-.025-.025-2.31-.913-2.334-3.593-.025-2.244 1.806-3.308 1.889-3.375-1.031-1.558-2.64-1.725-3.201-1.767zm8.282-3.032v16.323h2.5v-5.578h3.456c3.16 0 5.37-2.203 5.37-5.385s-2.177-5.36-5.287-5.36h-6.039zm2.5 2.136h2.879c2.17 0 3.407 1.172 3.407 3.233 0 2.06-1.238 3.249-3.415 3.249h-2.871V3.375zm13.38 14.312c1.568 0 3.02-.804 3.68-2.085h.049v1.96h2.31V9.437c0-2.353-1.856-3.877-4.71-3.877-2.649 0-4.612 1.54-4.686 3.651h2.252c.19-1.005 1.105-1.667 2.36-1.667 1.525 0 2.383.72 2.383 2.052v.905l-3.118.192c-2.896.176-4.463 1.382-4.463 3.476.008 2.11 1.625 3.517 3.943 3.517zm.677-1.934c-1.329 0-2.178-.654-2.178-1.642 0-1.03.817-1.625 2.376-1.717l2.771-.175v.92c0 1.525-1.278 2.614-2.97 2.614zM43.84 22c2.434 0 3.58-.946 4.579-3.802L52.8 5.72h-2.54l-2.938 9.639h-.049l-2.937-9.64H41.73l4.224 11.884-.23.72c-.38 1.223-1 1.7-2.105 1.7-.198 0-.577-.024-.734-.041v1.96c.149.033.767.058.957.058zm37.7-14.501v3.521h4.613a4.383 4.383 0 01-.586 1.576 4.14 4.14 0 01-1.122 1.207c-.77.56-1.754.878-2.908.878-2.23 0-4.114-1.614-4.79-3.775a5.903 5.903 0 010-3.5c.676-2.174 2.56-3.788 4.79-3.788a4.342 4.342 0 011.767.34 4.54 4.54 0 011.505 1.033l2.447-2.614C85.715.83 83.665-.023 81.54 0a8.193 8.193 0 00-4.493 1.374 8.858 8.858 0 00-3.131 3.672A9.618 9.618 0 0073 9.152c0 1.425.314 2.83.916 4.105v.013a8.845 8.845 0 003.132 3.668 8.18 8.18 0 004.492 1.368c2.3 0 4.245-.813 5.655-2.212 1.616-1.588 2.537-3.94 2.537-6.736a12.068 12.068 0 00-.141-1.86h-8.05zm31.457-.342c-.818-.8-1.933-1.207-3.343-1.207-1.815 0-3.178.712-4.08 2.123l1.685 1.132c.616-.968 1.458-1.452 2.525-1.452a2.67 2.67 0 011.838.75c.245.226.442.504.577.817.135.313.205.652.205.996v.47c-.735-.432-1.66-.661-2.798-.661-1.328 0-2.395.331-3.19 1.005-.795.673-1.197 1.563-1.197 2.694a3.547 3.547 0 00.277 1.47c.195.461.485.87.849 1.2.747.711 1.696 1.067 2.81 1.067 1.316 0 2.36-.623 3.151-1.869h.081v1.513h1.826v-6.718c.006-1.413-.397-2.532-1.216-3.33zm-1.553 7.624c-.28.3-.614.54-.983.704a2.873 2.873 0 01-1.164.248 2.23 2.23 0 01-1.48-.533 1.64 1.64 0 01-.464-.589 1.738 1.738 0 01-.164-.745c0-.598.26-1.094.771-1.488.51-.393 1.173-.597 1.944-.597 1.063-.014 1.895.242 2.488.75 0 .864-.32 1.614-.948 2.25zm-7.565-12.122a4.496 4.496 0 00-1.502-1.049 4.292 4.292 0 00-1.771-.343h-5.062v15.941h1.909v-6.457h3.15c1.292 0 2.383-.457 3.272-1.36l.214-.228a4.8 4.8 0 001.153-3.3 4.77 4.77 0 00-1.363-3.208v.004zm-1.34 5.312c-.24.271-.533.486-.858.628-.325.143-.675.21-1.027.198h-3.201V3.231h3.201a2.514 2.514 0 011.825.788 2.91 2.91 0 01.789 1.961c.011.738-.25 1.45-.729 1.988v.003zm20.086-1.667l-2.952 7.828h-.036l-3.023-7.828h-2.075l4.183 10.205L116.351 22h1.967L124.7 6.304h-2.075z"/></svg>