<svg xmlns="http://www.w3.org/2000/svg" fill="none" viewBox="0 0 75 25"><path fill="#DDD" d="M15.518 14.41l6.129-.012-.223 1.397-5.127 4.88h4.3l-.248 1.495h-6.326l.26-1.545 4.905-4.707h-3.917l.247-1.507zm-6.684-2.384a1.627 1.627 0 00-.531-.333 4.358 4.358 0 00-.717-.198 8.4 8.4 0 00-.815-.086c-.198-.013-.322-.013-.322-.013H1.78L0 22.17h1.668l.655-3.99 3.237.012s1.26.05 2.15-.42c.89-.47 1.136-1.545 1.136-1.545s.1-.395.186-.89c.086-.53.185-1.173.222-1.52.025-.147.037-.246.037-.246s.025-.111.025-.284c0-.235-.037-.593-.222-.94-.087-.11-.161-.222-.26-.32zM7.55 13.93c0 .025-.148.89-.346 1.915-.074.396-.37.606-.716.68-.569.123-1.187.099-1.187.099l-2.705-.013.593-3.583 2.446.013h.395c.26 0 .606.012.902.049.247.037.445.086.507.16.086.1.111.235.123.359.013.16-.012.309-.012.321zm22.387-2.534h1.606L29.752 22.17h-1.607l1.792-10.774zM38.5 14.41l1.544-.012.543 5.474 2.36-5.474h1.903l.556 5.499 2.36-5.499h1.606l-3.398 7.772h-1.89l-.544-5.436-2.397 5.436H39.29l-.79-7.76zm-11.516.063c-.445-.149-1.223-.173-1.89-.173-.643.012-.927.037-1.174.086 0 0-1.137.16-1.78.964-.642.803-.84 2.545-.84 2.545s-.382 1.928-.271 2.57c.111.643.309 1.236 1.038 1.52.729.284 1.346.272 1.346.272s1.298.098 2.274-.124a2.759 2.759 0 001.495-.914s.235-.297.395-.655c.16-.358.21-.593.222-.63l.1-.42H26.23s-.086 1.1-.988 1.198c-.902.1-1.372.062-1.557.05-.173-.013-1.136.037-1.062-.766v-.05c.037-.914.148-1.149.148-1.149l5.226-.012.223-1.297c.284-1.47.099-2.583-1.236-3.015zm-.358 2.83h-3.583l.136-.57s.123-.444.37-.63c.247-.185.569-.222.865-.246.297-.025 1.087-.087 1.742.049.21.037.42.16.47.346.136.408 0 1.05 0 1.05z"/><path fill="#DDD" d="M22.66 19.959v.037c-.013.061 0-.037 0-.037zm14.171-5.486c-.445-.149-1.223-.173-1.89-.173-.643.012-.927.037-1.174.086 0 0-1.137.16-1.78.964-.641.803-.84 2.545-.84 2.545s-.382 1.928-.271 2.57c.111.643.309 1.236 1.038 1.52.729.284 1.346.272 1.346.272s1.298.098 2.274-.124c.976-.235 1.495-.914 1.495-.914s.235-.297.395-.655c.16-.358.21-.593.223-.63l.099-.42h-1.668s-.087 1.1-.989 1.198c-.902.1-1.371.062-1.557.062-.173-.012-1.136.037-1.062-.766v-.05c.037-.914.148-1.148.148-1.148l5.226-.013.223-1.297c.284-1.47.111-2.595-1.236-3.027zm-.358 2.83H32.89l.136-.57s.123-.444.37-.63c.248-.185.569-.222.865-.246.297-.025 1.088-.087 1.742.049.21.037.42.16.47.346.136.408 0 1.05 0 1.05zm14.74-2.893l1.026 5.684 2.903-5.683 1.63.012-4.188 8.118s-.753 1.47-1.223 1.84c-.47.371-.753.544-1.136.581-.383.038-.544.062-.902 0l-.396-.074.247-1.445s.655.123 1.038-.037c.383-.149.692-.816.692-.816l.198-.333-1.52-7.87 1.631.024zm6.165.767h1.68l.1-.655s.185-1.186.58-1.409c.123-.074.334-.135.58-.185.446-.074 1.002-.086 1.459-.074.704.025.963.037 1.68.111.717.087.531.766.531.766l-.136 1.026s-.061.457-.222.741c-.148.26-.544.433-.779.507-.556.185-2.458.667-2.458.667l-1.495.432s-.915.272-1.433.828a3.394 3.394 0 00-.791 1.557c-.074.334-.47 2.669-.47 2.669h8.068l.272-1.607-6.375.013.111-.655s.074-.68.346-.902c.087-.074.123-.16.643-.346.308-.111 1.346-.383 1.346-.383l2.41-.655s1.31-.333 1.828-1.062c.519-.717.717-2.088.717-2.088s.136-1.335.037-1.755c-.111-.42-.507-.914-.976-1.136-.482-.21-.976-.347-2.434-.322-1.446.025-2.175.087-2.904.358-.741.272-1.161.767-1.433 1.458-.309.68-.482 2.1-.482 2.1zm15.185 3.003l1.137-6.772h-2.002l-6.24 6.697-.283 1.693h5.448l-.395 2.384h1.68l.396-2.384h1.544l.272-1.619h-1.557zm-1.656 0h-3.52l4.287-4.572-.767 4.571zm-58.539-5.894h5.14s1.149-.927 1.964-1.532c.816-.593 2.31-1.545 2.31-1.545L18.88 7.85s-2.459 1.52-3.497 2.236c-1.013.668-3.014 2.2-3.014 2.2zm11.033-4.028l-2.384-1.606s2.15-1.224 5.028-2.373c2.867-1.136 4.399-1.618 4.399-1.618l.482 2.273s-2.756.927-4.337 1.668A29.324 29.324 0 0023.4 8.258zm9.291-3.818l-.42-2.323s2.94-.778 5.634-1.285C40.6.326 44.17.092 44.17.092l-1.186 3.594s-3.138-.432-6.09-.024a34.268 34.268 0 00-4.202.778zm12.17-.445l1.99-3.99s4.349-.087 8.105.494c3.756.58 7.19 1.47 7.116 1.507l-9.526 4.98s-2.224-1.41-4.991-2.274a50.944 50.944 0 00-2.694-.717zm9.403 4.078l2.088 1.593H73.55s-.037-.556-.494-1.346c-.284-.495-.803-1.013-1.347-1.557-.197-.198-.988-.816-1.581-1.199-1.52-.988-2.372-1.371-3.941-2.075L54.265 8.073zM13.48 14.398c-.643 0-1.26.26-1.78.544l.087-.544h-1.705l-1.371 7.735h1.717l.754-4.287c.16-.865.803-1.94 2.075-1.94h.89l.272-1.508h-.94z"/></svg>