<svg xmlns="http://www.w3.org/2000/svg" fill="none" viewBox="0 0 84 20"><path fill="#DDD" d="M72.444 4.49A8.235 8.235 0 0069.603 4c-3.127 0-5.337 1.58-5.35 3.841-.026 1.662 1.566 2.599 2.77 3.159 1.236.573 1.65.93 1.643 1.439-.006.784-.988 1.134-1.891 1.134-1.256 0-1.938-.172-2.988-.612l-.39-.184-.445 2.612c.764.311 2.134.585 3.547.611 3.331 0 5.503-1.566 5.528-3.982.025-1.324-.827-2.33-2.643-3.158-1.096-.535-1.782-.9-1.782-1.447 0-.484.586-.993 1.809-.993.811-.02 1.618.13 2.369.44l.3.132.438-2.515-.074.013zm8.128-.273h-2.446c-.764 0-1.331.204-1.669.962l-4.7 10.655h3.324l.67-1.745 4.057.006c.101.407.387 1.737.387 1.737h2.936L80.572 4.217zM59.75 4.12h3.166l-1.98 11.622h-3.167L59.75 4.115v.006zm-8.05 6.4l.324 1.618 3.102-7.922h3.356l-4.994 11.597h-3.342l-2.74-9.82a.62.62 0 00-.299-.388c-.984-.512-2.027-.9-3.107-1.153l.038-.244h5.108c.688.026 1.248.244 1.44.982l1.114 5.337v-.006zm24.954 1.192l1.268-3.254c-.02.03.26-.67.42-1.11l.216 1 .734 3.356h-2.638v.008zM3.507 19.956v-1.328c0-.509-.32-.84-.87-.84-.276 0-.574.088-.78.376-.16-.244-.39-.376-.734-.376a.75.75 0 00-.642.31v-.266H0v2.124h.481v-1.173c0-.376.207-.553.528-.553.32 0 .481.2.481.553v1.173h.482v-1.173c0-.376.229-.553.527-.553.32 0 .481.2.481.553v1.173h.527zm7.13-2.124h-.78v-.642h-.481v.642H8.94v.42h.436v.974c0 .486.206.774.756.774.207 0 .436-.066.596-.155l-.137-.398a.775.775 0 01-.413.11c-.23 0-.32-.132-.32-.354v-.95h.778v-.421zm4.08-.044a.651.651 0 00-.573.31v-.266h-.482v2.124h.482V18.76c0-.354.16-.553.458-.553.092 0 .207.022.298.044l.138-.442c-.092-.022-.23-.022-.321-.022zm-6.167.22c-.229-.154-.55-.22-.894-.22-.55 0-.916.265-.916.685 0 .355.275.553.756.62l.23.022c.251.044.389.11.389.221 0 .155-.183.266-.504.266s-.574-.11-.734-.221l-.23.354c.253.176.597.265.94.265.642 0 1.01-.288 1.01-.686 0-.376-.299-.575-.757-.641l-.23-.023c-.206-.022-.366-.066-.366-.199 0-.154.16-.243.412-.243.276 0 .55.11.688.177l.206-.376zm12.792-.22a.651.651 0 00-.573.31v-.266h-.482v2.124h.482V18.76c0-.354.16-.553.458-.553.092 0 .206.022.298.044l.138-.442c-.092-.022-.23-.022-.321-.022zm-6.144 1.106c0 .641.459 1.106 1.17 1.106.32 0 .55-.066.779-.243l-.23-.377a.948.948 0 01-.573.2c-.39 0-.664-.266-.664-.686 0-.398.275-.664.664-.686.207 0 .39.066.573.2l.23-.377c-.23-.177-.459-.243-.78-.243-.71 0-1.169.464-1.169 1.106zm4.447 0v-1.062h-.481v.265c-.16-.199-.39-.31-.688-.31-.619 0-1.1.465-1.1 1.107 0 .641.481 1.106 1.1 1.106.321 0 .55-.11.688-.31v.266h.481v-1.062zm-1.765 0c0-.376.252-.686.665-.686.39 0 .665.288.665.686 0 .376-.275.686-.665.686-.413-.023-.665-.31-.665-.686zm-5.753-1.106c-.642 0-1.1.442-1.1 1.106 0 .664.458 1.106 1.122 1.106.321 0 .642-.089.894-.288l-.229-.331a1.12 1.12 0 01-.642.22c-.298 0-.596-.132-.665-.508h1.628v-.177c.023-.686-.39-1.128-1.009-1.128zm0 .398c.297 0 .504.177.55.509H11.53c.046-.288.253-.51.597-.51zm11.943.708V16.99h-.482v1.106c-.16-.199-.39-.31-.688-.31-.618 0-1.1.465-1.1 1.107 0 .641.482 1.106 1.1 1.106.321 0 .55-.11.688-.31v.266h.482v-1.062zm-1.766 0c0-.376.253-.686.665-.686.39 0 .665.288.665.686 0 .376-.275.686-.665.686-.413-.023-.665-.31-.665-.686zm-16.092 0v-1.062h-.481v.265c-.16-.199-.39-.31-.688-.31-.619 0-1.1.465-1.1 1.107 0 .641.481 1.106 1.1 1.106.321 0 .55-.11.688-.31v.266h.481v-1.062zm-1.788 0c0-.376.252-.686.665-.686.39 0 .665.288.665.686 0 .376-.275.686-.665.686-.413-.023-.665-.31-.665-.686zM11.42 13.536l.181.145a7.414 7.414 0 01-4.132 1.247A7.465 7.465 0 117.464 0c1.53 0 2.954.456 4.134 1.242a2.08 2.08 0 00-.166.154 8.023 8.023 0 00-2.78 6.068 8.05 8.05 0 002.77 6.072h-.001zM16.7 0a7.425 7.425 0 00-4.134 1.242c.06.052.118.103.166.154a8.022 8.022 0 012.78 6.068 8.06 8.06 0 01-2.77 6.072l-.18.145a7.406 7.406 0 004.132 1.247A7.465 7.465 0 1016.698 0zM12.08 1.6a7.442 7.442 0 00-2.85 5.865 7.444 7.444 0 002.85 5.868 4.94 4.94 0 00.284-.236 7.442 7.442 0 002.568-5.632A7.444 7.444 0 0012.08 1.6z"/></svg>