<svg height="512" viewBox="0 0 511.922 511.922" width="512" xmlns="http://www.w3.org/2000/svg"><path d="M456.775 448.899l-64.76-112.168c10.741-9.045 18.164-21.909 20.147-36.486 1.347-9.912 6.445-18.743 14.355-24.866 20.505-15.872 27.967-43.719 18.146-67.719-3.789-9.258-3.789-19.455 0-28.712 9.821-24 2.359-51.846-18.146-67.719-7.91-6.123-13.009-14.954-14.355-24.866-3.495-25.694-23.881-46.08-49.575-49.573-9.911-1.348-18.742-6.446-24.864-14.356-15.874-20.506-43.718-27.967-67.72-18.146-9.258 3.789-19.455 3.789-28.712 0-23.998-9.822-51.846-2.36-67.719 18.146-6.123 7.91-14.954 13.008-24.866 14.356-25.695 3.494-46.08 23.879-49.573 49.574-1.348 9.912-6.446 18.743-14.356 24.866-20.506 15.873-27.967 43.72-18.146 67.719 3.789 9.257 3.789 19.455 0 28.712-9.822 23.999-2.36 51.846 18.146 67.719 7.91 6.123 13.008 14.954 14.356 24.865 2.008 14.769 9.604 27.776 20.573 36.837L55.148 448.899a10 10 0 0011.249 14.659l56.271-15.078 15.013 56.029A10 10 0 00156 506.921l69.662-120.657a57.44 57.44 0 0015.628-3.944c9.258-3.789 19.456-3.789 28.712 0a57.463 57.463 0 0016.304 4.022l69.616 120.579a9.999 9.999 0 0018.32-2.412l15.014-56.029 56.271 15.078a9.998 9.998 0 0011.248-14.659zM150.75 476.014l-11.353-42.369a10 10 0 00-12.247-7.071l-42.611 11.417 52.543-91.007a57.514 57.514 0 0011.623 2.835c9.912 1.348 18.743 6.446 24.866 14.356 7.771 10.039 18.414 16.944 30.069 20.232zm82.964-112.203c-15.709 6.43-33.937 1.545-44.328-11.877-9.354-12.084-22.845-19.874-37.987-21.932-16.819-2.287-30.164-15.631-32.45-32.451-2.059-15.142-9.848-28.632-21.932-37.987-13.423-10.39-18.307-28.619-11.878-44.328 5.789-14.143 5.789-29.72 0-43.863-6.429-15.709-1.545-33.938 11.878-44.328 12.084-9.354 19.873-22.844 21.932-37.987 2.287-16.819 15.631-30.164 32.45-32.451 15.142-2.058 28.633-9.847 37.987-21.931 7.328-9.467 18.551-14.686 30.043-14.686 4.803 0 9.654.913 14.284 2.808 14.144 5.788 29.722 5.788 43.864 0 15.708-6.43 33.938-1.545 44.328 11.878 9.354 12.084 22.844 19.873 37.985 21.931 16.819 2.287 30.164 15.631 32.451 32.451 2.059 15.143 9.848 28.633 21.932 37.987 13.423 10.39 18.307 28.618 11.878 44.328-5.788 14.143-5.788 29.72 0 43.863 6.429 15.709 1.544 33.938-11.878 44.328-12.084 9.354-19.873 22.844-21.932 37.986-2.287 16.82-15.632 30.165-32.45 32.451-15.143 2.058-28.633 9.847-37.987 21.932-10.391 13.424-28.619 18.307-44.327 11.877-14.143-5.787-29.719-5.787-43.863.001zm151.058 62.763c-5.337-1.431-10.817 1.737-12.247 7.071l-11.354 42.369-52.98-91.765c11.443-3.348 21.879-10.19 29.531-20.074 6.122-7.911 14.953-13.009 24.864-14.356a57.462 57.462 0 0012.14-3.032l52.656 91.204z"/><path d="M210.202 156.314l-31.113 31.112a10.001 10.001 0 000 14.142l58.353 58.354a10.001 10.001 0 0014.142 0l81.25-81.25c3.905-3.905 3.905-10.237 0-14.142l-31.112-31.113a10.003 10.003 0 00-14.142 0l-43.066 43.067-20.168-20.169a10.001 10.001 0 00-14.144-.001zm27.239 41.383a10.001 10.001 0 0014.142 0l43.066-43.067 16.971 16.971-67.108 67.108-44.21-44.211 16.971-16.97z"/><path d="M385.961 196.67c0-26.564-7.961-52.112-23.021-73.882-14.707-21.257-35.136-37.512-59.078-47.006-5.136-2.035-10.946.476-12.982 5.61s.476 10.946 5.609 12.982c42.203 16.735 69.473 56.889 69.473 102.296 0 60.654-49.346 110-110 110s-110-49.346-110-110c0-45.408 27.27-85.562 69.473-102.297 5.134-2.036 7.646-7.848 5.61-12.982s-7.849-7.646-12.982-5.61c-23.943 9.495-44.372 25.749-59.079 47.006-15.061 21.77-23.022 47.318-23.022 73.882 0 71.682 58.318 130 130 130 71.682.001 129.999-58.317 129.999-129.999z"/><path d="M255.961 86.666c2.63 0 5.21-1.06 7.069-2.93a10.059 10.059 0 002.931-7.07c0-2.63-1.07-5.21-2.931-7.07-1.859-1.86-4.439-2.93-7.069-2.93s-5.21 1.07-7.07 2.93-2.93 4.44-2.93 7.07c0 2.64 1.07 5.21 2.93 7.07 1.86 1.87 4.44 2.93 7.07 2.93z"/></svg>